<svg id="Ebene_1" data-name="Ebene 1" xmlns="http://www.w3.org/2000/svg" xmlns:xlink="http://www.w3.org/1999/xlink" viewBox="0 0 37.276 37.276"><defs><clipPath id="clip-path"><rect x="-14.12" y="3.638" width="67" height="30" fill="none"/></clipPath></defs><g clip-path="url(#clip-path)"><g id="logo"><g id="Group"><path d="M0,14.563V14.5C0,8.415,5.12,3.639,12.063,3.639a13.635,13.635,0,0,1,9.088,3.045L17.5,10.773A8.223,8.223,0,0,0,12.1,8.8a5.668,5.668,0,0,0-5.727,5.731v.06a5.718,5.718,0,0,0,6.079,5.79,6.683,6.683,0,0,0,3.584-.866V16.981H11.615V12.742h10.3v9.4a15.822,15.822,0,0,1-9.728,3.223C5.216,25.367,0,20.89,0,14.563Z"/><path d="M15.708,12.743h6.208V21.22l7.712-8.477h7.36l-8.48,8.985,8.767,11.908H29.82l-5.632-7.76-2.272,2.358v5.4H15.708Z"/></g></g></g></svg>